<?xml version="1.0" encoding="UTF-8"?>
<svg width="821px" height="600px" viewBox="0 0 821 600" version="1.1" xmlns="http://www.w3.org/2000/svg" xmlns:xlink="http://www.w3.org/1999/xlink">
    <!-- Generator: Sketch 59.1 (86144) - https://sketch.com -->
    <title>Remote Team work</title>
    <desc>Created with Sketch.</desc>
    <defs>
        <polygon id="path-1" points="0 577 709 577 709 0 0 0"></polygon>
    </defs>
    <g id="Remote-Team-work" stroke="none" stroke-width="1" fill="none" fill-rule="evenodd">
        <g id="Group-145" transform="translate(42.000000, 0.000000)">
            <path d="M210,73.1140904 C207.340579,71.7160131 94.3240981,83.6019227 91,85" id="Stroke-1" stroke="#4D8854" stroke-width="3.725" stroke-linecap="round" stroke-linejoin="round" stroke-dasharray="11.174,0,0"></path>
            <line x1="424.5" y1="259" x2="424.5" y2="263" id="Stroke-3" stroke="#4D8854" stroke-width="3.725" stroke-linecap="round" stroke-linejoin="round"></line>
            <line x1="424.5" y1="263" x2="424.5" y2="270" id="Stroke-5" stroke="#4D8854" stroke-width="3.725" stroke-linecap="round" stroke-linejoin="round" stroke-dasharray="0,11.258,0,0"></line>
            <path d="M423.973268,272.038075 L423.973268,281.323566 C423.973268,281.323566 425.981806,288 395.178471,288 L292.054104,288 C292.054104,288 280,286.664283 280,265.301416 C280,246.007727 301.299276,122.7174 305.427818,99" id="Stroke-7" stroke="#4D8854" stroke-width="3.725" stroke-linecap="round" stroke-linejoin="round" stroke-dasharray="11.258,0,0,11.258,0,0"></path>
            <path d="M306.0215,99 C306.6375,96.4186512 306.9785,95 306.9785,95" id="Stroke-9" stroke="#4D8854" stroke-width="3.725" stroke-linecap="round" stroke-linejoin="round"></path>
            <line x1="191.5" y1="533" x2="191.5" y2="537" id="Stroke-11" stroke="#4D8854" stroke-width="3.725" stroke-linecap="round" stroke-linejoin="round"></line>
            <line x1="191.5" y1="536" x2="191.5" y2="543" id="Stroke-13" stroke="#4D8854" stroke-width="3.725" stroke-linecap="round" stroke-linejoin="round" stroke-dasharray="0,11.139,0,0"></line>
            <path d="M191.099202,544.307015 L191.099202,556.332565 C191.099202,556.332565 188.429929,576 210.783741,576 L365.923997,576 C365.923997,576 388.110129,572.665893 388.110129,553.833238 L388.110129,410.333489 C388.110129,410.333489 385.941748,393 409.963765,393 L448,393" id="Stroke-15" stroke="#4D8854" stroke-width="3.725" stroke-linecap="round" stroke-linejoin="round" stroke-dasharray="11.139,0,0,11.139,0,0"></path>
            <line x1="448" y1="392.5" x2="452" y2="392.5" id="Stroke-17" stroke="#4D8854" stroke-width="3.725" stroke-linecap="round" stroke-linejoin="round"></line>
            <path d="M231.292221,271.05353 C231.292221,280.413829 223.715922,288 214.367088,288 L16.9244157,288 C7.57701565,288 0,280.413829 0,271.05353 L26.7077791,146.94647 C29.2038131,134.689842 37.659209,130 47.0073261,130 L241.076301,130 C250.423701,130 258,137.587607 258,146.94647 L231.292221,271.05353 Z" id="Fill-19" fill="#F6C448"></path>
            <path d="M564.292369,235.05353 C564.292369,244.413829 556.714679,252 547.366614,252 L349.924322,252 C340.576974,252 333,244.413829 333,235.05353 L359.707631,110.94647 C362.203651,98.689842 370.660434,94 380.008499,94 L574.074244,94 C583.422309,94 591,101.586889 591,110.94647 L564.292369,235.05353 Z" id="Fill-21" fill="#0A4C57"></path>
            <path d="M295,229.030726 C295,229.030726 305.549248,217.060738 310.383819,217.060738 C315.219097,217.060738 338.515383,214.401376 339.833773,217.504204 C341.152872,220.608459 334.559503,226.371364 322.250749,232.577733 C309.944119,238.783388 297.637489,241 297.637489,241 L295,229.030726 Z" id="Fill-23" fill="#894D33"></path>
            <path d="M198.512945,66.9576318 C198.512945,66.9576318 197.093291,48.8973348 171.190345,53.5869576 C164.343025,54.8258752 159.635223,42.5805092 148.424977,46.9444038 C124.28656,56.3409066 122.866189,43.9337551 115.889093,61.3469101 C112.970198,68.6351678 94.3985452,77.1184813 100.070708,89.7147421 C105.740002,102.311003 96.2526992,110.781374 102.918619,120.65029 C106.368808,125.758398 104.965645,134.887416 121.242191,135.213144 C129.350709,135.375648 141.976307,150.440397 151.073563,153.17565 C160.170103,155.910904 187.487684,151.965495 186.456642,139.446891 C185.654323,129.681517 197.010836,130.494759 203.987933,119.268282 C210.085274,109.455451 199.204847,106.983369 205.023993,91.1197594 C209.287974,79.4920546 198.179541,76.6604485 198.512945,66.9576318" id="Fill-25" fill="#353535"></path>
            <path d="M109.063459,200.377528 C109.063459,200.377528 113.410685,219.701069 113.076007,232.361838 C112.741328,245.021891 89,287 89,287 L190.653133,287 C190.653133,287 185.30259,212.704836 184.299992,212.704836 C183.296675,212.704836 192.659048,220.034529 192.659048,220.034529 C192.659048,220.034529 213.725105,269.010302 215.397778,269.676507 C217.069733,270.342713 301,240.357736 301,240.357736 C301,240.357736 295.315497,225.032145 293.308864,225.032145 C291.302231,225.032145 225.763467,240.357736 225.763467,240.357736 C225.763467,240.357736 211.050551,158.731448 209.043918,155.733165 C207.038003,152.734167 174.936901,146.071395 174.936901,146.071395 C174.936901,146.071395 160.325968,142.899942 143.839833,144.405523 C128.799421,145.779438 112.324776,150.185269 105.68723,152.644004 C105.68723,152.644004 101.454915,153.999313 101.413259,155.865548 C101.372322,157.731782 109.063459,200.377528 109.063459,200.377528" id="Fill-27" fill="#0A4C57"></path>
            <polygon id="Fill-29" fill="#89CDCB" points="103 265 184.811587 265 217 177 133.846779 177"></polygon>
            <polygon id="Fill-31" fill="#FFFFFF" points="106.747221 265 138 177 133.578865 177 103 265"></polygon>
            <path d="M118,226.913543 C118,226.913543 118.894601,228.031527 119.566274,233.621448 C120.238667,239.210649 120.015017,241 120.015017,241 C120.015017,241 130.763217,240.552662 137.033361,236.304754 C143.303506,232.056846 159.650899,221.324342 158.979948,219.982329 C158.307554,218.641036 157.858811,217.298302 153.156383,217.075714 C148.453955,216.851685 133.002606,217.075714 130.315195,218.417007 C127.628506,219.7583 118,226.913543 118,226.913543" id="Fill-33" fill="#894D33"></path>
            <path d="M116.00623,195.338053 L78.8262751,234.301403 L117.666087,225.232223 C117.666087,225.232223 118.662144,227.919575 119.658202,231.278584 C120.654259,234.637593 120.985803,241.019421 120.985803,241.019421 C122.091661,241.355611 58.2441834,267.555304 52.2685535,268.898619 C46.2943495,270.242655 35.00689,257.814466 34.0108329,255.798772 C33.0825105,253.920873 92.1022839,169.224211 101.771953,155.500322 C101.771953,155.500322 103.723426,152.679504 110.031313,151" id="Fill-35" fill="#0A4C57"></path>
            <path d="M137,144.261447 C137,144.261447 154.923819,172.272844 163.553515,170.954911 C172.183925,169.636977 173.179138,163.70486 173.843564,158.102581 C174.506564,152.500302 172.847638,111.306738 172.847638,111.306738 L149.281188,109 C149.281188,109 147.953049,135.033789 143.638557,140.965905 C140.603014,145.139126 137,144.261447 137,144.261447" id="Fill-37" fill="#894D33"></path>
            <path d="M174,119.962402 C174,119.962402 172.848256,128.201508 172.310775,136 C157.594281,134.603651 150.694579,120.655204 148,113 L174,119.962402 Z" id="Fill-39" fill="#773F2B"></path>
            <path d="M178.628306,128 C178.628306,128 143.613755,126.246244 145.042568,104.470621 C146.471381,82.6942782 142.915896,67.802093 165.332288,68.0019881 C187.74724,68.1997261 191.541581,76.7930584 192.83298,84.1776724 C194.125818,91.5630055 187.77314,127.895019 178.628306,128" id="Fill-41" fill="#894D33"></path>
            <path d="M180,76.5596584 C180,76.5596584 171.627865,74.5971883 168.894239,78.6877165 C166.157734,82.7782447 168.112072,85.0682753 162.005126,86.7863405 C155.901779,88.5044058 153.823676,88.3822033 154.436025,92.6773664 C155.045497,96.9718064 148.298139,100.162809 148.008874,103.598939 C147.718889,107.035793 144.908269,108.752412 142.223574,108.998986 C139.536719,109.244837 140.75782,64.6966204 151.13826,62.7341503 C161.516542,60.770234 171.532163,63.1014807 174.584556,65.5563761 C177.637669,68.0112716 180,76.5596584 180,76.5596584" id="Fill-43" fill="#353535"></path>
            <path d="M180.24223,75.6711945 C180.24223,75.6711945 188.290547,75.1042557 189.739841,79.7264913 C191.189136,84.3494435 189.257455,85.4431839 191.308666,88.2413243 C193.362722,91.038748 192.175254,96 192.175254,96 C192.175254,96 208.093304,66.4675774 191.308666,64.5223538 C174.52545,62.5756967 174.967993,66.0217671 180.24223,75.6711945" id="Fill-45" fill="#353535"></path>
            <path d="M340,164.278024 C340,164.278024 371.117908,211.537615 383.120376,224.466422 C395.122844,237.395946 401.791121,240.071194 403.124489,239.179205 C404.458574,238.287217 426.242184,203.511155 426.242184,203.511155 L427.575553,253 L512.926915,253 C512.926915,253 516.928453,218.223938 516.928453,219.561921 C516.928453,220.899186 522.262645,235.611969 522.262645,238.733211 L522.262645,252.554006 L548.935751,252.554006 C548.935751,252.554006 552.491879,228.478934 550.26912,220.007915 C548.045645,211.536897 531.15368,125.934726 524.930099,122.368927 C518.706517,118.802409 486.255241,105.426172 469.361844,100.52239 C452.469163,95.617889 424.020141,92.0513713 420.907276,95.1718947 C417.794411,98.2931364 404.014595,154.915017 398.679688,174.978295 C394.815639,189.510813 392.900801,195.486131 392.900801,195.486131 L352.003184,150.456511 C352.003184,150.456511 341.333369,157.590264 340,164.278024" id="Fill-47" fill="#86B1F2"></path>
            <path d="M517,218.945915 C517,218.945915 504.445984,172.861781 504.012221,175.077406 C503.578458,177.293744 514.83537,238 514.83537,238 L517,218.945915 Z" id="Fill-49" fill="#6394DB"></path>
            <path d="M349.956264,151.359382 C350.839029,150.557545 338.09976,130.415923 335.136695,127.091473 C332.140385,123.730609 330.195896,125.429249 330.195896,125.429249 C330.195896,125.429249 324.597266,134.73785 328.220283,145.375945 C331.8433,156.01404 340.07608,161 340.07608,161 C340.07608,161 346.662869,154.351101 349.956264,151.359382" id="Fill-51" fill="#FFDAB6"></path>
            <path d="M468.628773,70.70525 L473,101.13878 C473,101.13878 457.067577,133.782198 447.562086,130.808503 C439.586239,128.313975 444.493519,97.9791394 444.493519,97.9791394 C444.493519,97.9791394 448.83905,81.6888978 447.53639,73.5373405 C446.233016,65.3857831 468.628773,70.70525 468.628773,70.70525" id="Fill-53" fill="#FFDAB6"></path>
            <path d="M447.558578,73.5413885 C446.255942,65.3823794 468.639029,70.7069577 468.639029,70.7069577 L469,73.0961824 C468.345828,74.6952022 467.54684,76.0637455 466.573073,77.1137733 C461.572976,82.513507 453.758585,85.7544925 447,86 C447.676287,81.601622 448.092902,76.8854442 447.558578,73.5413885" id="Fill-55" fill="#D68954"></path>
            <path d="M472.963959,27.5342938 C473.707738,27.2646626 478.927083,65.9406418 469.020788,76.5835629 C459.113776,87.2250536 439.808502,90.7080874 432.882336,82.3259198 C425.225289,73.0561866 425.610793,31.4872153 441.015172,20.5389029 C456.418117,9.59273615 472.963959,27.5342938 472.963959,27.5342938" id="Fill-57" fill="#FFDAB6"></path>
            <path d="M447.476763,0.238866356 C459.471786,2.65846436 467.241807,9.91154505 470.098177,13.0024601 C475.541667,13.6380688 482.94643,16.6154313 490.589405,29.1376365 C499.989368,44.5336501 493.046591,61.5922445 482.107638,69.9622825 C471.164353,78.3316063 471.316664,88 471.316664,88 L469.587828,83.0008306 C468.310149,79.2114601 467.788249,75.1928421 468.215586,71.2199307 C468.473287,68.8367552 468.987968,66.2578979 469.987012,64.1403926 C472.615999,58.5491787 464.332741,54.8376525 462.011263,50.1862824 C460.223235,46.6047346 460.136612,38.4146667 457.316335,32.4956501 L453.951058,27.9764009 C453.951058,27.9764009 446.186812,21.9981084 438.590036,23.6871135 C430.993982,25.3725478 432.086867,-2.8670462 447.476763,0.238866356" id="Fill-59" fill="#F6C448"></path>
            <path d="M462.002088,57.4171009 C461.923117,62.1099584 464.094438,65.9533204 466.854776,65.9995659 C469.615838,66.0465229 471.919017,62.2778653 471.997987,57.5842964 C472.075508,52.8907276 469.904188,49.0473656 467.14385,49.0004085 C464.382788,48.9548744 462.081782,52.7213977 462.002088,57.4171009" id="Fill-61" fill="#FFDAB6"></path>
            <path d="M449,70.8642105 L434,70 C434,70 434.051816,76.3543481 440.636041,76.9464924 C448.667514,77.667468 449,70.8642105 449,70.8642105" id="Fill-63" fill="#FFFFFF"></path>
            <path d="M329.004864,101 C328.672077,101.995551 327.672286,124.242131 333.004028,148.148914 C338.335054,172.054984 342,177.699532 342,177.699532 C342,177.699532 296.683774,188.32469 295.683983,187.992364 C294.684907,187.660751 281.022766,172.718923 277.024318,145.160121 C273.025869,117.601318 282.023273,103.656468 282.023273,103.656468 L329.004864,101 Z" id="Fill-65" fill="#C4E5E0"></path>
            <path d="M353.292369,466.053043 C353.292369,475.413214 345.713962,483 336.366614,483 L138.924322,483 C129.576256,483 122,475.413214 122,466.053043 L148.707631,341.946957 C151.203651,329.690496 159.660434,325 169.008499,325 L363.074244,325 C372.422309,325 380,332.588222 380,341.946957 L353.292369,466.053043 Z" id="Fill-67" fill="#D28F60"></path>
            <path d="M132,473.879027 C132,473.879027 178.685066,383.771122 183.130615,381.994977 C187.577596,380.221692 236.041025,376.226795 249.379104,378.889583 C262.717899,381.553086 308.514142,404.191071 310.292505,407.741216 C312.070151,411.292076 331.188088,511.610672 333.85599,512.055423 C336.523893,512.497314 417,538.688305 417,538.688305 L411.219426,556 C411.219426,556 317.40524,538.243554 312.514205,533.803906 C307.624603,529.367118 283.614915,464.55784 283.614915,464.55784 L279.167217,482.759038 L174.239517,482.759038 L174.683571,467.666095 L165.791041,483.645681 L135.557442,483.200929 L132,473.879027 Z" id="Fill-69" fill="#4E9EAD"></path>
            <path d="M126.591249,503.682778 C126.591249,503.682778 125.260939,484.223427 126.591249,480.600726 C127.921558,476.980212 133.687184,472 133.687184,472 C133.687184,472 155.420807,474.264462 156.751116,477.884976 C158.081425,481.50476 153.645394,486.031496 153.645394,486.031496 C153.645394,486.031496 148.767832,503.682778 142.558531,505.493764 C136.347802,507.302563 126.591249,503.682778 126.591249,503.682778" id="Fill-71" fill="#FAC8BB"></path>
            <path d="M230.315545,380.648024 L237.416097,352.680181 C237.416097,352.680181 226.763839,342.470335 229.427618,335.366278 C232.089968,328.263652 236.528885,327.375466 238.747271,330.038594 C240.966373,332.702436 240.078446,306.954343 254.724943,303.402315 C269.37001,299.852432 288.899388,303.847123 291.117774,306.510965 C293.335446,309.174808 290.673096,315.389248 290.673096,315.389248 C290.673096,315.389248 287.566783,353.124989 278.689664,365.111208 C269.814688,377.097426 263.157385,372.657212 263.157385,372.657212 L260.495035,389.084359 C260.495035,389.084359 253.393768,397.961926 244.517364,393.96652 C235.640959,389.971114 230.315545,380.648024 230.315545,380.648024" id="Fill-73" fill="#FAC8BB"></path>
            <path d="M263,372.867832 C263,372.867832 254.034159,368.112335 250,362 C250,362 252.690402,369.132151 257.059598,374.906006 C260.96162,380.06126 261.766719,380 261.766719,380 L263,372.867832 Z" id="Fill-75" fill="#E2A69A"></path>
            <path d="M230.236452,331.971392 C230.236452,331.971392 226.547609,308.376765 231.913068,299.07153 C237.277807,289.767008 258.067701,283.785021 269.803292,286.776371 C281.539604,289.767008 292.940304,298.407737 297.634541,299.07153 C302.329498,299.73675 303,298.407737 303,298.407737 C303,298.407737 302.329498,304.388297 297.634541,309.706492 C292.940304,315.02326 290.369205,315.35587 290.369205,315.35587 C290.369205,315.35587 281.875215,310.702895 273.827026,311.700012 C265.780278,312.696415 255.384971,321.66904 253.037853,322.998768 C250.690735,324.327781 248.008725,328.648145 248.008725,328.648145 C248.008725,328.648145 245.660887,341.275914 244.989664,343.270148 C244.565469,344.532068 239.960537,344.267265 240.296148,341.608524 C240.631039,338.949783 238.842793,330.642379 238.05994,329.977159 C237.277807,329.312652 233.588964,327.983638 230.236452,331.971392" id="Fill-77" fill="#353535"></path>
            <path d="M262,356 C262,356 267.064514,358.681828 273.333227,359.63805 C277.666773,360.30016 280,357.984197 280,357.984197 C280,357.984197 275.33283,366.914861 269.999841,365.923118 C264.666852,364.929954 262,356 262,356" id="Fill-79" fill="#FFFFFF"></path>
            <path d="M411,554.486668 C411,554.486668 423.842213,558.769188 433.304208,561.733628 C442.766929,564.698776 464.732898,565.027765 467.774876,561.074942 C470.816128,557.122119 442.091176,538.674668 439.049924,539.004364 C436.007946,539.334061 431.276949,540.321736 426.883465,540.321736 L416.069237,540.321736 L411,554.486668 Z" id="Fill-81" fill="#FAC8BB"></path>
            <path d="M423,521.999642 C423,499.908556 440.909272,482 462.999642,482 C485.091444,482 503,499.908556 503,521.999642 C503,544.090728 485.091444,562 462.999642,562 C440.909272,562 423,544.090728 423,521.999642" id="Fill-83" fill="#69A2B2"></path>
            <path d="M463.347918,521.242497 L474,482.427611 C470.6065,481.502761 467.036066,481 463.347918,481 C441.065208,481 423,499.017287 423,521.242497 C423,534.154382 429.104545,545.637215 438.58237,553 L463.347918,521.242497 Z" id="Fill-85" fill="#F6C448"></path>
            <path d="M494.713769,546 C499.906445,539.246417 503,530.793869 503,521.614013 C503,503.163296 490.526266,487.636863 473.56004,483 C473.222835,484.248248 463,521.614013 463,521.614013 L494.713769,546 Z" id="Fill-87" fill="#D7D7E6"></path>
            <path d="M185,114.789041 L173,114 C173,114 173.031909,120.761254 179.397133,120.996596 C184.030927,121.168267 185,114.789041 185,114.789041" id="Fill-89" fill="#FFFFFF"></path>
            <path d="M675.292369,435.052889 C675.292369,444.413145 667.713962,452 658.366614,452 L460.924322,452 C451.576974,452 444,444.413145 444,435.052889 L470.707631,310.947111 C473.203651,298.689103 481.660434,294 491.008499,294 L685.075678,294 C694.422309,294 702,301.587573 702,310.947111 L675.292369,435.052889 Z" id="Fill-91" fill="#A4A532"></path>
            <path d="M541.119124,344.865683 L539.187516,272.836747 C537.811075,255.99538 544.463752,249.887899 544.463752,249.887899 C572.732788,239.349304 587,253.574198 587,253.574198 L587,327.16475 C574.7103,338.56291 557.280645,346.112268 541.119124,344.865683" id="Fill-93" fill="#161616"></path>
            <path d="M549.337259,272.831005 L551.242577,344.545066 C547.84068,345.012639 544.440911,345.122405 541.097202,344.862246 L539.185498,272.831005 C537.823745,255.989099 544.40614,249.880709 544.40614,249.880709 C554.369854,246.124442 562.563786,245.522869 569,246.292654 C564.689085,246.77377 559.875052,247.877129 554.556483,249.880709 C554.556483,249.880709 547.979765,255.989099 549.337259,272.831005" id="Fill-95" fill="#161616"></path>
            <path d="M555.082017,336.330149 L564.798544,335.330798 L564.798544,302.667189 L591.602829,302 L591.938179,336.330149 L604,340.663296 C604,340.663296 584.231597,385.658441 573.509739,384.992684 C562.78788,384.325496 545.700121,357.327979 545.03014,356.328628 C544.360159,355.328561 555.082017,336.330149 555.082017,336.330149" id="Fill-97" fill="#FAC8BB"></path>
            <path d="M570.206085,468.928807 C570.206085,468.928807 536.553914,469.376069 531.17,468.028494 C525.786086,466.680918 518.159417,455 520.402173,455 C522.644205,455 572,455.898142 572,455.898142 L570.206085,468.928807 Z" id="Fill-99" fill="#FAC8BB"></path>
            <path d="M610.955142,452.518151 C610.955142,452.518151 609.616481,439.573961 610.06366,434.663352 C610.509401,429.752023 614.526104,410.110306 614.526104,410.110306 L628.361337,452.518151 L610.955142,452.518151 Z M635.503261,351.185874 C631.039379,346.276703 605.599777,337.794415 601.136614,337.794415 C596.674169,337.794415 575.697012,364.578052 570.787389,366.364251 C565.879203,368.151169 562.30824,334.223455 562.30824,334.223455 C562.30824,334.223455 535.975719,333.330355 531.958296,335.115116 C527.941593,336.902034 515,369.488661 515,370.827591 L541.331084,424.395584 L573.01897,449.839571 L567.663605,471.712599 C567.663605,471.712599 638.626325,480.195606 646.213991,478.856676 C653.800938,477.517027 659.603482,472.159868 660.942143,466.356159 C662.281524,460.555327 639.965706,356.096483 635.503261,351.185874 L635.503261,351.185874 Z" id="Fill-101" fill="#353738"></path>
            <mask id="mask-2" fill="white">
                <use xlink:href="#path-1"></use>
            </mask>
            <g id="Clip-104"></g>
            <polygon id="Fill-103" fill="#B0B0B5" mask="url(#mask-2)" points="579 457 612 457 612 449 579 449"></polygon>
            <path d="M585,455.600975 C585,457.231325 583.684672,458.553329 582.062386,458.553329 L462.096418,459 C460.473415,459 459.157369,457.678717 459.157369,456.049087 L439,373.399746 C439,371.768675 440.316045,370.446671 441.938331,370.446671 L561.905016,370 C563.527302,370 564.842631,371.322003 564.842631,372.951634 L585,455.600975 Z" id="Fill-105" fill="#D7D7E6" mask="url(#mask-2)"></path>
            <path d="M585,454.629308 L564.826817,372.668914 C564.826817,372.048072 564.630153,371.472954 564.29855,371 C512.312375,394.687719 462,458 462,458 L582.060081,457.557052 C583.68364,457.557052 585,456.246069 585,454.629308" id="Fill-106" fill="#C4C4CE" mask="url(#mask-2)"></path>
            <path d="M509.96062,411.824172 C510.35249,415.948828 507.775357,419.595731 504.208093,419.968701 C500.640131,420.343869 497.429872,417.302952 497.039397,413.17683 C496.647528,409.052174 499.223266,405.405272 502.791925,405.030836 C506.359189,404.658598 509.569449,407.699515 509.96062,411.824172" id="Fill-107" fill="#FFFFFF" mask="url(#mask-2)"></path>
            <path d="M571.3925,436.5 L571.6075,436.5 L571.3925,436.5 Z" id="Fill-108" fill="#6A3F2C" mask="url(#mask-2)"></path>
            <path d="M564.619715,320.799637 C564.712572,317.052564 564.096942,312.998653 562,309.308564 L596,287 C596,287 593.537482,302.25641 593.285966,316.170771 C581.00701,320.072724 575.954023,321.583534 564.619715,320.799637" id="Fill-109" fill="#773F2B" mask="url(#mask-2)"></path>
            <path d="M556.469901,312.390126 L554.47978,307.492449 L549.492713,293.036042 C548.788933,290.73329 548.355399,287.564841 549.029944,285.24694 C549.839255,282.465169 550.35265,277.968598 549.091979,273.034129 C545.722108,259.820718 551.227562,252.548869 551.227562,252.548869 C558.320977,239.873632 576.499459,239 576.499459,239 C599.035385,239.023085 601.978139,260.952616 601.978139,260.952616 C606.327028,275.416958 595.38885,288.17155 595.367458,288.193193 C593.982003,289.805552 593.950629,292.313186 593.343111,294.24946 C592.692097,296.323524 591.648906,298.28144 590.32406,299.986141 C587.349218,303.814683 583.400351,307.537898 579.272508,309.938041 C575.360719,312.216987 567.679751,314.736163 562.151479,314.961244 C559.859738,315.055749 557.606502,315.200753 556.469901,312.390126" id="Fill-110" fill="#FAC8BB" mask="url(#mask-2)"></path>
            <path d="M593.241544,296.809751 C592.835246,286.448238 592.601643,287.095743 592.601643,287.095743 C592.211826,284.081249 586.628275,290.907387 586.548018,286.959767 C586.194747,268.884316 579.230356,260.63079 576.605542,259.368876 C569.482072,255.959404 562.112816,255.247149 556.363737,256.576692 C547.357107,258.660218 548.318034,270.792296 548.318034,270.792296 C538.323965,226.71234 588.444792,238.404835 588.444792,238.404835 C612.824101,243.520121 611.496288,266.411568 611.496288,266.411568 C615.680368,290.699466 592.423215,306 592.423215,306 L593.241544,296.809751 Z" id="Fill-111" fill="#1E0400" mask="url(#mask-2)"></path>
            <path d="M591.75893,293.161261 C592.59389,293.76486 593.638834,294.07781 594.925796,293.983405 C598.398742,293.750737 601.116452,290.198274 600.996156,286.060796 C600.874435,281.937442 597.972365,278.776724 594.502978,279.012365 C592.856549,279.126098 591.383804,279.983922 590.297574,281.294445 C588.718056,283.205594 588.829811,286.57222 589.333064,288.866937 C589.738087,290.699291 590.514678,292.255863 591.75893,293.161261" id="Fill-112" fill="#F79F7D" mask="url(#mask-2)"></path>
            <path d="M593.063363,283.504394 C593.149755,281.434704 597.02076,283.191682 596.499207,284.38253 C596.202275,285.069368 595.558494,285.59879 595.065099,286.092918 C594.382282,286.770579 594.055912,287.379063 594.005996,288.406849 C593.997677,288.524028 593.991918,288.884741 594.108387,288.961684 C594.612661,289.307573 596.121642,287.209647 596.453772,286.764932 C597.105232,285.88962 597.134029,284.46159 596.750704,283.447922 C596.353941,282.371429 595.673683,281.889302 594.612661,282.021304 C593.765379,282.122954 592.905937,282.235897 593.008328,283.397098 C593.012168,283.419686 593.058243,283.608161 593.063363,283.504394" id="Fill-113" fill="#E98A6F" mask="url(#mask-2)"></path>
            <path d="M594.194653,285.201309 C593.69844,284.738303 593.268746,285.168011 592.809233,285.547771 C592.378774,285.911676 592.156281,286.402431 592.06759,286.953441 C591.868799,288.172004 592.105054,289.772707 592.822231,290.78593 C593.396431,291.601742 594.324631,292.071883 595.303295,291.991016 C596.664248,291.880814 597.00678,290.615474 596.999899,289.421488 C596.999899,289.10436 596.982314,288.346424 596.678775,288.164076 C596.335478,287.965078 596.132865,288.504988 595.931015,288.741249 C595.638181,289.053619 595.197783,289.19712 594.798671,289.251032 C594.027974,289.361233 593.248102,288.99178 592.736598,288.424914 C592.644848,288.323433 592.555392,288.202131 592.507988,288.070523 C592.548511,288.851451 592.594386,289.020321 592.652494,288.58982 C592.699898,288.389237 592.781708,288.202131 592.883397,288.022161 C593.170115,287.46798 593.683148,287.072363 594.010389,286.538003 C594.168657,286.293022 594.439319,285.43757 594.194653,285.201309" id="Fill-114" fill="#E98A6F" mask="url(#mask-2)"></path>
            <path d="M591.00313,294.102457 C591.055974,295.205805 591.997797,296.05654 593.102834,295.997062 C594.204527,295.942262 595.055379,295.003313 594.997184,293.899965 C594.942333,292.796617 594.003854,291.945882 592.898148,292.002687 C591.795118,292.057487 590.94159,292.999777 591.00313,294.102457" id="Fill-115" fill="#FFFFFF" mask="url(#mask-2)"></path>
            <path d="M559.615695,257 L577,237.478027 C556.348807,230.273385 544,251.749171 544,251.749171 L547.909824,257 C547.909824,257 555.349717,239.658892 559.615695,257" id="Fill-116" fill="#161616" mask="url(#mask-2)"></path>
            <path d="M621,319.512369 C621,331.381454 597.802609,341.467381 582.501393,345 C583.171059,331.031562 583.191135,320.509705 583.191135,320.509705 C584.670996,293.747263 583.855782,283.826962 581.428064,265.312795 C579.528766,250.858954 569.04857,245.032677 559,256.012692 C559.407249,255.565289 559.502608,254.030209 559.700496,253.426502 C560.002348,252.500865 560.362275,251.596738 560.779561,250.716989 C564.295665,243.337708 571.44474,238.096496 579.200386,235.860198 C581.980861,235.059318 584.691071,234.821277 587.557584,235.131018 C597.115736,236.173524 608.939565,242.901777 613.739075,251.28413 C618.441791,259.496556 619.495045,269.849203 620.263655,279.111305 C620.694564,284.356102 621.044453,289.712749 620.949094,294.976904 C620.949094,294.979772 620.761243,304.985395 621,319.512369" id="Fill-117" fill="#161616" mask="url(#mask-2)"></path>
            <path d="M569,299 C569,299 562.590774,301.164972 557.796785,300.125023 L553,299.086436 C553,299.086436 556.58064,307.094315 561.136991,305.873328 C565.694042,304.655744 569,299 569,299" id="Fill-118" fill="#FFFFFF" mask="url(#mask-2)"></path>
            <polygon id="Fill-119" fill="#89CDCB" mask="url(#mask-2)" points="108 429 43 429 43 368.999795 64.4435809 345 108 345"></polygon>
            <path d="M43,368 C44.0902062,367.556112 64,366.944693 64,366.944693 L63.9451734,344 L43,368 Z" id="Fill-120" fill="#C4E5E0" mask="url(#mask-2)"></path>
            <polygon id="Fill-121" fill="#FFFFFF" mask="url(#mask-2)" points="48 395 102 395 102 390 48 390"></polygon>
            <polygon id="Fill-122" fill="#FFFFFF" mask="url(#mask-2)" points="48 379 102 379 102 374 48 374"></polygon>
            <polygon id="Fill-123" fill="#FFFFFF" mask="url(#mask-2)" points="69 361 101 361 101 356 69 356"></polygon>
            <line x1="101.5" y1="289" x2="101.5" y2="293" id="Stroke-124" stroke="#4D8854" stroke-width="3.725" stroke-linecap="round" stroke-linejoin="round" mask="url(#mask-2)"></line>
            <line x1="101.5" y1="293" x2="101.5" y2="302" id="Stroke-125" stroke="#4D8854" stroke-width="3.725" stroke-linecap="round" stroke-linejoin="round" stroke-dasharray="0,13.968,0,0" mask="url(#mask-2)"></line>
            <line x1="101.5" y1="302" x2="101.5" y2="322" id="Stroke-126" stroke="#4D8854" stroke-width="3.725" stroke-linecap="round" stroke-linejoin="round" stroke-dasharray="13.968,0,0,13.968,0,0" mask="url(#mask-2)"></line>
            <polyline id="Stroke-127" stroke="#4D8854" stroke-width="3.725" stroke-linecap="round" stroke-linejoin="round" mask="url(#mask-2)" points="101 322 101 326 97 326"></polyline>
            <line x1="97" y1="326.5" x2="90" y2="326.5" id="Stroke-128" stroke="#4D8854" stroke-width="3.725" stroke-linecap="round" stroke-linejoin="round" stroke-dasharray="0,11.096,0,0" mask="url(#mask-2)"></line>
            <path d="M89.0870101,326 L33.9391513,326 C33.9391513,326 20,329.332693 20,340.000176 L20,445.333337 C20,445.333337 20.6636333,464 38.5845846,464 L97,464" id="Stroke-129" stroke="#4D8854" stroke-width="3.725" stroke-linecap="round" stroke-linejoin="round" stroke-dasharray="11.096,0,0,11.096,0,0" mask="url(#mask-2)"></path>
            <line x1="97" y1="464.5" x2="101" y2="464.5" id="Stroke-130" stroke="#4D8854" stroke-width="3.725" stroke-linecap="round" stroke-linejoin="round" mask="url(#mask-2)"></line>
            <line x1="534.5" y1="81" x2="534.5" y2="77" id="Stroke-131" stroke="#4D8854" stroke-width="3.725" stroke-linecap="round" stroke-linejoin="round" mask="url(#mask-2)"></line>
            <line x1="534.5" y1="77" x2="534.5" y2="70" id="Stroke-132" stroke="#4D8854" stroke-width="3.725" stroke-linecap="round" stroke-linejoin="round" stroke-dasharray="0,11.059,0,0" mask="url(#mask-2)"></line>
            <path d="M534.198862,68.9328316 L534.198862,56.1508763 C534.198862,56.1508763 529.507987,38.106565 565.691554,38.106565 L675.579215,38.106565 C675.579215,38.106565 693,34.7648398 693,65.5078504 L693,262" id="Stroke-133" stroke="#4D8854" stroke-width="3.725" stroke-linecap="round" stroke-linejoin="round" stroke-dasharray="11.059,0,0,11.059,0,0" mask="url(#mask-2)"></path>
            <line x1="692.5" y1="262" x2="692.5" y2="266" id="Stroke-134" stroke="#4D8854" stroke-width="3.725" stroke-linecap="round" stroke-linejoin="round" mask="url(#mask-2)"></line>
            <path d="M181,518 C181,512.476661 185.478093,508 191,508 C196.522623,508 201,512.476661 201,518 C201,523.523339 196.522623,528 191,528 C185.478093,528 181,523.523339 181,518" id="Fill-135" fill="#4E9EAD" mask="url(#mask-2)"></path>
            <path d="M680,282.999642 C680,277.476821 684.477932,273 690.001074,273 C695.522783,273 700,277.476821 700,282.999642 C700,288.523895 695.522783,293 690.001074,293 C684.477932,293 680,288.523895 680,282.999642" id="Fill-136" fill="#4E9EAD" mask="url(#mask-2)"></path>
            <path d="M71,86 C71,80.4766609 75.4780928,76 81,76 C86.5219072,76 91,80.4766609 91,86 C91,91.5233391 86.5219072,96 81,96 C75.4780928,96 71,91.5233391 71,86" id="Fill-137" fill="#4E9EAD" mask="url(#mask-2)"></path>
            <polygon id="Fill-138" fill="#F6C448" mask="url(#mask-2)" points="657.807354 206.19671 657.807354 200 640 200 640 254 709 254 709 206.19671"></polygon>
            <polygon id="Fill-139" fill="#F08A36" mask="url(#mask-2)" points="657.807354 199 640 199 640 211 709 211 709 205.720278 657.807354 205.720278"></polygon>
            <path d="M313.399061,57 L232.600939,57 C222.879126,57 215,64.8352118 215,74.499642 C215,74.7251621 215.024483,74.9435228 215.033124,75.1668951 L215,75.1668951 L215,92 L232.600939,92 L248.525529,92 L313.399061,92 C323.120154,92 331,84.1647882 331,74.499642 C331,64.8352118 323.120154,57 313.399061,57" id="Fill-140" fill="#4E9EAD" mask="url(#mask-2)"></path>
            <polygon id="Fill-141" fill="#FFFFFF" mask="url(#mask-2)" points="226 66 316 66 316 64 226 64"></polygon>
            <polygon id="Fill-142" fill="#FFFFFF" mask="url(#mask-2)" points="226 85 316 85 316 83 226 83"></polygon>
            <polygon id="Fill-143" fill="#FFFFFF" mask="url(#mask-2)" points="226 75 268 75 268 73 226 73"></polygon>
            <polygon id="Fill-144" fill="#FFFFFF" mask="url(#mask-2)" points="275 75 317 75 317 73 275 73"></polygon>
        </g>
    </g>
</svg>